<svg width="271" height="165" viewBox="0 0 271 165" fill="none" xmlns="http://www.w3.org/2000/svg">
<g clip-path="url(#clip0_238_43)">
<path d="M203.051 93.4536H225.598V116.8L203.051 93.4536Z" fill="#35D1C2"/>
<path d="M225.332 116.682H247.885V140.034L225.332 116.682Z" fill="#35D1C2"/>
<path d="M247.844 139.813H270.396V163.165L247.844 139.813Z" fill="#35D1C2"/>
<path d="M270.396 163.165L225.603 116.8L203.051 93.4536V163.165H270.396Z" fill="white" stroke="#3A53D5" stroke-miterlimit="10"/>
<path d="M270.396 163.165H203.051L225.603 116.8L270.396 163.165Z" fill="#3A53D5"/>
<path d="M247.885 140.034L203.051 163.165" stroke="white" stroke-miterlimit="10"/>
<path d="M225.598 93.4536L270.396 139.813" stroke="#3A53D5" stroke-miterlimit="10"/>
<path d="M212.286 102.29H158.135C155.993 102.29 154.257 104.034 154.257 106.186V160.59C154.257 162.742 155.993 164.486 158.135 164.486H212.286C214.427 164.486 216.164 162.742 216.164 160.59V106.186C216.164 104.034 214.427 102.29 212.286 102.29Z" fill="#3554D2"/>
<path d="M210.495 102.547H156.344C154.202 102.547 152.466 104.291 152.466 106.443V160.847C152.466 162.999 154.202 164.743 156.344 164.743H210.495C212.637 164.743 214.373 162.999 214.373 160.847V106.443C214.373 104.291 212.637 102.547 210.495 102.547Z" fill="white" stroke="#3554D2" stroke-miterlimit="10"/>
<path d="M206.146 106.916H160.693C158.551 106.916 156.815 108.66 156.815 110.812V156.478C156.815 158.63 158.551 160.374 160.693 160.374H206.146C208.288 160.374 210.024 158.63 210.024 156.478V110.812C210.024 108.66 208.288 106.916 206.146 106.916Z" fill="#3554D2" stroke="#3554D2" stroke-miterlimit="10"/>
<path d="M205.778 159.86L158.605 160.374V112.468C158.605 110.396 160.278 108.715 162.34 108.715L209.513 109.229V156.108C209.513 158.179 207.84 159.86 205.778 159.86Z" fill="white"/>
<path d="M194.542 149.43H188.259L185.763 142.902H174.328L171.964 149.43H165.835L176.978 120.687H183.087L194.542 149.43ZM183.905 138.06L179.961 127.394L176.098 138.06H183.905Z" fill="#3554D2"/>
<path d="M197.566 125.786V120.687H203.051V125.786H197.566ZM197.566 149.43V128.608H203.051V149.43H197.566Z" fill="#3554D2"/>
<path d="M193.33 147.837H187.047L184.55 141.309H173.115L170.751 147.837H164.622L175.765 119.093H181.874L193.33 147.837ZM182.693 136.467L178.748 125.801L174.885 136.467H182.693Z" fill="white" stroke="#3554D2" stroke-miterlimit="10"/>
<path d="M196.353 124.192V119.093H201.838V124.192H196.353ZM196.353 147.837V127.014H201.838V147.837H196.353Z" fill="white" stroke="#3554D2" stroke-miterlimit="10"/>
<path d="M195.013 74.5843L192.629 74.0343V66.8226H190.582V73.5665L188.024 72.9754V65.2806H185.977V72.5077L183.419 71.9165V63.2245H181.373V71.4436L178.815 70.8577V61.6824H176.768V70.3848L173.698 69.6806V61.1684H171.652V69.2077L169.605 68.7399V59.1123H167.559V68.267L165.001 67.6759V57.5703H162.954V67.2081L160.396 66.617V58.0843H158.349V66.1493L156.815 65.7946L147.472 65.1264L147.094 77.103L111.279 69.9067L111.264 69.6497L108.854 23.645L108.558 17.9086L108.21 11.3086L116.907 11.5296L119.44 11.5913L137.373 12.0436L149.14 12.3366L148.449 34.239L154.256 35.4675V39.5488L160.396 40.6077L158.349 49.7572L190.582 61.6824C190.582 61.6824 194.834 63.2245 195.013 65.2806C195.187 67.3366 195.013 74.5843 195.013 74.5843Z" fill="#3354D3"/>
<path d="M137.372 12.0433V20.0466H116.907V11.5293L119.44 11.591L137.372 12.0433Z" fill="#EA4B8A"/>
<path d="M137.372 23.645H116.907V69.9067H137.372V23.645Z" fill="#EA4B8A"/>
<path d="M108.21 11.3086L108.558 17.9086L108.721 19.0189H112.814V23.645H108.854L111.264 69.6497L116.907 69.9067L119.44 11.5913L108.21 11.3086ZM116.641 23.8147H114.349V18.5049H116.641V23.8147Z" fill="white"/>
<path d="M130.21 2.05615V11.8636L116.35 11.5141L120.489 2.05615H130.21Z" fill="#E9498B"/>
<path d="M141.297 12.1412L130.21 11.8636V2.05615H136.866L141.297 12.1412Z" fill="#3354D3"/>
<path d="M136.493 74.9746C136.493 74.9746 138.907 129.533 142.489 148.037C142.489 148.037 146.07 159.346 135.838 159.346H90.5789L145.047 160.888V164.198H179.331V157.937L172.163 157.804C172.163 157.804 147.093 125.42 147.093 77.1026" fill="#3554D2"/>
<path d="M111.116 82.2432C111.116 82.2432 105.651 140.327 85.1863 154.72" stroke="#3554D2" stroke-miterlimit="10"/>
<path d="M87.0847 67.8501H19.8463C17.2213 67.8501 15.0933 69.988 15.0933 72.6253V158.682C15.0933 161.32 17.2213 163.458 19.8463 163.458H87.0847C89.7097 163.458 91.8377 161.32 91.8377 158.682V72.6253C91.8377 69.988 89.7097 67.8501 87.0847 67.8501Z" fill="#3554D2"/>
<path d="M84.0149 66.8223H16.7765C14.1514 66.8223 12.0234 68.9602 12.0234 71.5975V157.654C12.0234 160.292 14.1514 162.43 16.7765 162.43H84.0149C86.6399 162.43 88.7679 160.292 88.7679 157.654V71.5975C88.7679 68.9602 86.6399 66.8223 84.0149 66.8223Z" fill="white" stroke="#3554D2" stroke-miterlimit="10"/>
<path d="M12.5352 76.8457H88.768" stroke="#3554D2" stroke-miterlimit="10"/>
<path d="M75.3171 56.0278H8.07872C5.45369 56.0278 3.32568 58.1658 3.32568 60.8031V146.86C3.32568 149.497 5.45369 151.635 8.07872 151.635H75.3171C77.9421 151.635 80.0701 149.497 80.0701 146.86V60.8031C80.0701 58.1658 77.9421 56.0278 75.3171 56.0278Z" fill="#3554D2"/>
<path d="M72.2473 55H5.0089C2.38387 55 0.255859 57.1379 0.255859 59.7752V145.832C0.255859 148.47 2.38387 150.607 5.0089 150.607H72.2473C74.8723 150.607 77.0003 148.47 77.0003 145.832V59.7752C77.0003 57.1379 74.8723 55 72.2473 55Z" fill="white" stroke="#3554D2" stroke-miterlimit="10"/>
<path d="M0.767578 65.0234H77.0004" stroke="#3554D2" stroke-miterlimit="10"/>
<path d="M11 131.332C13.967 131.332 16.3722 129.146 16.3722 126.449C16.3722 123.752 13.967 121.565 11 121.565C8.03311 121.565 5.62793 123.752 5.62793 126.449C5.62793 129.146 8.03311 131.332 11 131.332Z" stroke="#3554D2" stroke-miterlimit="10"/>
<path d="M7.67456 125.164L11.0002 127.898L17.0118 121.565" stroke="#3554D2" stroke-miterlimit="10"/>
<path d="M11 145.21C13.967 145.21 16.3722 143.024 16.3722 140.327C16.3722 137.63 13.967 135.444 11 135.444C8.03311 135.444 5.62793 137.63 5.62793 140.327C5.62793 143.024 8.03311 145.21 11 145.21Z" stroke="#3554D2" stroke-miterlimit="10"/>
<path d="M7.67456 139.042L11.0002 141.777L17.0118 135.444" stroke="#3554D2" stroke-miterlimit="10"/>
<path d="M31.3937 124.136H21.0485C20.5851 124.136 20.2095 124.513 20.2095 124.979V125.863C20.2095 126.328 20.5851 126.706 21.0485 126.706H31.3937C31.8571 126.706 32.2328 126.328 32.2328 125.863V124.979C32.2328 124.513 31.8571 124.136 31.3937 124.136Z" fill="#3554D2"/>
<path d="M50.0681 124.136H44.5835C44.1201 124.136 43.7444 124.513 43.7444 124.979V125.863C43.7444 126.328 44.1201 126.706 44.5835 126.706H50.0681C50.5315 126.706 50.9072 126.328 50.9072 125.863V124.979C50.9072 124.513 50.5315 124.136 50.0681 124.136Z" fill="#3554D2"/>
<path d="M38.3005 124.393H36.9089C36.4455 124.393 36.0698 124.77 36.0698 125.236V126.12C36.0698 126.585 36.4455 126.963 36.9089 126.963H38.3005C38.7639 126.963 39.1396 126.585 39.1396 126.12V125.236C39.1396 124.77 38.7639 124.393 38.3005 124.393Z" fill="#3554D2"/>
<path d="M50.0681 138.785H44.5835C44.1201 138.785 43.7444 139.163 43.7444 139.628V140.512C43.7444 140.978 44.1201 141.355 44.5835 141.355H50.0681C50.5315 141.355 50.9072 140.978 50.9072 140.512V139.628C50.9072 139.163 50.5315 138.785 50.0681 138.785Z" fill="#3554D2"/>
<path d="M38.3006 138.785H30.2578C29.7944 138.785 29.4187 139.163 29.4187 139.628V140.512C29.4187 140.978 29.7944 141.355 30.2578 141.355H38.3006C38.764 141.355 39.1397 140.978 39.1397 140.512V139.628C39.1397 139.163 38.764 138.785 38.3006 138.785Z" fill="#3554D2"/>
<path d="M24.4867 138.785H21.0485C20.5851 138.785 20.2095 139.163 20.2095 139.628V140.512C20.2095 140.978 20.5851 141.355 21.0485 141.355H24.4867C24.9501 141.355 25.3258 140.978 25.3258 140.512V139.628C25.3258 139.163 24.9501 138.785 24.4867 138.785Z" fill="#3554D2"/>
<path d="M61.324 138.785H55.8393C55.3759 138.785 55.0002 139.163 55.0002 139.628V140.512C55.0002 140.978 55.3759 141.355 55.8393 141.355H61.324C61.7874 141.355 62.1631 140.978 62.1631 140.512V139.628C62.1631 139.163 61.7874 138.785 61.324 138.785Z" fill="#3554D2"/>
<path d="M71.045 124.136H55.8393C55.3759 124.136 55.0002 124.513 55.0002 124.979V125.863C55.0002 126.328 55.3759 126.706 55.8393 126.706H71.045C71.5084 126.706 71.884 126.328 71.884 125.863V124.979C71.884 124.513 71.5084 124.136 71.045 124.136Z" fill="#3554D2"/>
<path d="M6.65134 61.4254C7.49904 61.4254 8.18623 60.735 8.18623 59.8834C8.18623 59.0317 7.49904 58.3413 6.65134 58.3413C5.80365 58.3413 5.11646 59.0317 5.11646 59.8834C5.11646 60.735 5.80365 61.4254 6.65134 61.4254Z" fill="#B93600"/>
<path d="M11.5119 61.6823C12.3596 61.6823 13.0468 60.9919 13.0468 60.1402C13.0468 59.2885 12.3596 58.5981 11.5119 58.5981C10.6642 58.5981 9.97705 59.2885 9.97705 60.1402C9.97705 60.9919 10.6642 61.6823 11.5119 61.6823Z" fill="#3552D6"/>
<path d="M16.1164 61.6823C16.9641 61.6823 17.6513 60.9919 17.6513 60.1402C17.6513 59.2885 16.9641 58.5981 16.1164 58.5981C15.2687 58.5981 14.5815 59.2885 14.5815 60.1402C14.5815 60.9919 15.2687 61.6823 16.1164 61.6823Z" fill="#32D2C1"/>
<path d="M38.3723 117.967C51.6528 117.967 62.4189 107.151 62.4189 93.8083C62.4189 80.4657 51.6528 69.6494 38.3723 69.6494C25.0917 69.6494 14.3257 80.4657 14.3257 93.8083C14.3257 107.151 25.0917 117.967 38.3723 117.967Z" fill="#36D2BE"/>
<path d="M28.1397 91.2894C28.1397 91.2894 24.0466 91.752 24.0466 95.8642C24.0466 99.9763 28.1397 99.2875 28.1397 99.2875V103.806C28.1397 103.806 27.628 109.748 33.5118 109.748C39.3955 109.748 39.329 104.094 39.329 104.094C39.329 104.094 45.0234 102.089 46.3025 100.521C47.5816 98.9534 46.8142 88.8786 46.8142 88.8786L43.4886 81.4768L30.1862 80.4487L28.1397 91.2945V91.2894Z" fill="white" stroke="#3351DB" stroke-miterlimit="10"/>
<path d="M33.5118 98.4345C36.4787 98.4345 38.8839 96.0181 38.8839 93.0373C38.8839 90.0565 36.4787 87.6401 33.5118 87.6401C30.5448 87.6401 28.1396 90.0565 28.1396 93.0373C28.1396 96.0181 30.5448 98.4345 33.5118 98.4345Z" stroke="#3351DB" stroke-miterlimit="10"/>
<path d="M46.8143 98.4345C49.7812 98.4345 52.1864 96.0181 52.1864 93.0373C52.1864 90.0565 49.7812 87.6401 46.8143 87.6401C43.8473 87.6401 41.4421 90.0565 41.4421 93.0373C41.4421 96.0181 43.8473 98.4345 46.8143 98.4345Z" stroke="#3351DB" stroke-miterlimit="10"/>
<path d="M17.907 106.659L19.9535 104.089H50.641L56.7908 109.743" stroke="#3351DB" stroke-miterlimit="10"/>
<path d="M34.2791 94.8363C34.8442 94.8363 35.3024 94.3761 35.3024 93.8083C35.3024 93.2405 34.8442 92.7803 34.2791 92.7803C33.714 92.7803 33.2559 93.2405 33.2559 93.8083C33.2559 94.3761 33.714 94.8363 34.2791 94.8363Z" fill="#3351DB"/>
<path d="M45.2794 95.0932C45.8445 95.0932 46.3026 94.6329 46.3026 94.0651C46.3026 93.4974 45.8445 93.0371 45.2794 93.0371C44.7142 93.0371 44.2561 93.4974 44.2561 94.0651C44.2561 94.6329 44.7142 95.0932 45.2794 95.0932Z" fill="#3351DB"/>
<path d="M47.3258 88.9252C47.3258 88.9252 39.6514 88.4111 34.5351 82.7569C34.5351 82.7569 34.0234 86.8691 28.9071 92.0093C28.9071 92.0093 27.0601 91.0789 26.876 87.013C26.1494 87.2546 25.3667 87.3831 24.5583 87.3831C20.4601 87.3831 17.1396 84.0471 17.1396 79.9298C17.1396 75.8125 20.4601 72.4766 24.5583 72.4766C28.242 72.4766 31.3016 75.1752 31.8746 78.7116C31.8746 78.7116 46.3025 71.9625 47.3258 88.9252Z" fill="#3351DB"/>
<path d="M36.8374 99.4624H40.3523" stroke="#3351DB" stroke-miterlimit="10"/>
<path d="M27.4541 94.8364V96.8103" stroke="#3351DB" stroke-miterlimit="10"/>
</g>
<defs>
<clipPath id="clip0_238_43">
<rect width="271" height="165" fill="white"/>
</clipPath>
</defs>
</svg>
