<svg width="275" height="157" viewBox="0 0 275 157" fill="none" xmlns="http://www.w3.org/2000/svg">
<g clip-path="url(#clip0_251_111)">
<path d="M109.249 103.998L46.0864 65.9078C56.6169 48.4833 79.2955 42.8929 96.7364 53.4104C114.182 63.9279 119.785 86.5788 109.249 103.998Z" fill="#3356CC"/>
<path d="M107.252 63.2548C107.252 63.2548 93.5957 76.3705 78.252 84.7337L96.0124 53.231" stroke="#32D2BF" stroke-miterlimit="10"/>
<path d="M77.8524 85.0677C77.2133 67.6083 82.6957 48.4434 82.6957 48.4434" stroke="#32D2BF" stroke-miterlimit="10"/>
<path d="M68.9049 49.1614C68.9049 49.1614 67.6666 60.9257 77.8376 84.5589" stroke="#32D2BF" stroke-miterlimit="10"/>
<path d="M60.4614 111.479L78.6064 84.539C94.8739 85.0327 113.363 75.6472 113.363 75.6472" stroke="#32D2BF" stroke-miterlimit="10"/>
<path d="M114.237 89.895C114.237 89.895 96.8811 92.6728 78.0671 84.8881C78.0671 84.8881 69.9633 81.7912 56.2373 54.8066" stroke="#32D2BF" stroke-miterlimit="10"/>
<path d="M89.8408 41.6612L50.7249 42.0203V2.88745C72.1702 2.91737 89.6411 20.1923 89.8408 41.6612Z" fill="#3356CC"/>
<path d="M50.7249 2.88745V42.0203L11.4741 42.3843C11.2744 20.7707 28.6504 3.08693 50.2955 2.88745H50.7249Z" fill="#36D0C0"/>
<path d="M50.8846 42.0204C40.5638 26.5956 34.8218 6.21387 34.8218 6.21387" stroke="#3356CC" stroke-miterlimit="10"/>
<path d="M22.7585 14.542C22.7585 14.542 28.206 25.8674 50.5851 41.5714" stroke="#3356CC" stroke-miterlimit="10"/>
<path d="M77.7326 13.7341C77.7326 13.7341 66.2535 32.5151 51.2742 41.1226" stroke="#32D2BF" stroke-miterlimit="10"/>
<path d="M14.7346 26.3711C39.3955 41.3619 49.1021 41.4018 50.7249 41.2722" stroke="#3356CC" stroke-miterlimit="10"/>
<path d="M50.7249 41.5216C50.8996 41.5067 50.9795 41.4917 50.9795 41.4917C72.335 38.0607 86.4755 25.8875 86.4755 25.8875" stroke="#32D2BF" stroke-miterlimit="10"/>
<path d="M64.0614 5.23633C64.0614 5.23633 59.2231 28.1066 50.9795 41.4916" stroke="#36D0C0" stroke-miterlimit="10"/>
<path d="M51.4738 61.1104H49.4766V110.481H51.4738V61.1104Z" fill="#B9C0CB"/>
<path d="M68.6652 61.1903L1.9823 84.0855C-4.34895 65.6935 5.44752 45.6609 23.8621 39.3374C42.2766 33.0139 62.3339 42.7983 68.6652 61.1903Z" fill="#32D2BF"/>
<path d="M37.5332 37.6716C37.5332 37.6716 38.7864 55.7145 35.5209 72.0718L23.2878 39.7562" stroke="#3454D1" stroke-miterlimit="10"/>
<path d="M35.5211 72.5706C22.3143 62.3373 11.6091 46.5735 11.6091 46.5735" stroke="#3454D1" stroke-miterlimit="10"/>
<path d="M47.8292 110.481L35.1367 72.2712C11.5593 65.2296 3.68018 57.1108 3.68018 57.1108" stroke="#3454D1" stroke-miterlimit="10"/>
<path d="M50.3755 40.7935C50.3755 40.7935 45.9267 60.0881 35.5959 71.6928" stroke="#3454D1" stroke-miterlimit="10"/>
<path d="M61.3703 48.8923C61.3703 48.8923 52.7672 63.3047 35.5211 72.3062C35.5211 72.3062 28.2811 76.3407 0.0600586 69.8476" stroke="#3454D1" stroke-miterlimit="10"/>
<path d="M40.7037 156.112H38.5567C38.5567 156.112 34.747 157.11 32.2504 151.624C29.7539 146.138 15.7732 109.733 15.7732 109.733H33.9131C32.7048 111.274 31.8909 113.424 32.7497 116.216C34.1778 120.844 38.4019 143.515 40.7037 156.112Z" stroke="#3454D1" stroke-miterlimit="10"/>
<path d="M75.2911 109.733L65.0852 156.107C64.9604 156.112 64.8355 156.112 64.7057 156.112H40.7039C38.4021 143.515 34.1779 120.844 32.7499 116.216C31.8911 113.424 32.7049 111.274 33.9133 109.733H75.2911Z" fill="#EA4B8A"/>
<path d="M88.0285 109.733L72.1954 152.123C72.1954 152.123 70.7624 155.943 65.0852 156.107L75.2911 109.733H88.0285Z" fill="#3158CF"/>
<path d="M224.854 106.985C224.854 106.985 217.285 117.677 216.127 135.431C214.843 135.306 213.999 135.167 213.999 135.167C213.999 135.167 205.012 136.663 201.017 134.169V126.998C201.017 126.998 200.518 113.224 188.035 105.744C175.553 98.2631 177.05 75.323 177.05 75.323C177.05 75.323 179.008 44.2342 212.896 41.8105C220.71 50.7073 235.295 72.9642 224.854 106.985Z" stroke="#3653D2" stroke-miterlimit="10"/>
<path d="M239.964 105.744C227.481 113.224 226.982 126.998 226.982 126.998V134.169C224.21 135.9 219.033 135.71 216.127 135.431C217.285 117.677 224.854 106.985 224.854 106.985C235.295 72.9642 220.71 50.7073 212.896 41.8105C213.26 41.7806 213.625 41.7607 213.999 41.7407C248.951 43.561 250.948 75.323 250.948 75.323C250.948 75.323 252.446 98.2631 239.964 105.744Z" fill="#3554D1"/>
<path d="M223.237 135.666H204.762C203.521 135.666 202.515 136.67 202.515 137.91C202.515 139.149 203.521 140.154 204.762 140.154H223.237C224.478 140.154 225.484 139.149 225.484 137.91C225.484 136.67 224.478 135.666 223.237 135.666Z" stroke="#3653D2" stroke-miterlimit="10"/>
<path d="M223.237 140.154H204.762C203.521 140.154 202.515 141.159 202.515 142.398C202.515 143.637 203.521 144.642 204.762 144.642H223.237C224.478 144.642 225.484 143.637 225.484 142.398C225.484 141.159 224.478 140.154 223.237 140.154Z" stroke="#3653D2" stroke-miterlimit="10"/>
<path d="M223.237 145.141H204.762C203.521 145.141 202.515 146.146 202.515 147.385C202.515 148.624 203.521 149.629 204.762 149.629H223.237C224.478 149.629 225.484 148.624 225.484 147.385C225.484 146.146 224.478 145.141 223.237 145.141Z" stroke="#3653D2" stroke-miterlimit="10"/>
<path d="M204.762 149.629C204.762 149.629 206.51 155.464 213.999 155.289C221.489 155.115 222.987 149.629 222.987 149.629" stroke="#3653D2" stroke-miterlimit="10"/>
<path d="M199.764 44.6084C199.764 44.6084 165.067 75.5576 202.515 116.58C202.515 116.58 207.414 117.578 205.961 135.346" stroke="#3653D2" stroke-miterlimit="10"/>
<path d="M210.504 135.351L206.904 89.9797C206.904 89.9797 202.016 80.8087 196.524 88.2892C196.524 88.2892 193.812 91.78 197.417 95.0216C197.417 95.0216 197.522 97.3206 210.504 96.2982L226.482 96.2683C226.482 96.2683 230.976 96.767 232.474 91.78C233.972 86.7931 229.478 83.8009 224.984 86.2944C220.491 88.7879 222.463 98.0088 222.463 98.0088L221.724 116.865" stroke="#3653D2" stroke-miterlimit="10"/>
<path d="M181.02 15.0554L194.776 39.6661" stroke="#3554D1" stroke-miterlimit="10"/>
<path d="M214.998 16.4768V33.3876" stroke="#3554D1" stroke-miterlimit="10"/>
<path d="M248.452 11.9885L234.95 39.6662" stroke="#3554D1" stroke-miterlimit="10"/>
<path d="M259.936 45.8999L251.003 54.1783" stroke="#3554D1" stroke-miterlimit="10"/>
<path d="M274.915 65.3491L259.936 70.7799" stroke="#3554D1" stroke-miterlimit="10"/>
<path d="M168.327 44.6084L176.995 54.1784" stroke="#3554D1" stroke-miterlimit="10"/>
<path d="M155.081 65.3491L169.561 70.7799" stroke="#3554D1" stroke-miterlimit="10"/>
<path d="M88.9819 115.887C88.9819 115.887 98.0494 109.788 107.831 98.767C113.343 92.5532 123.23 87.0226 130.365 83.5517C142.039 77.8665 155.585 77.0487 167.713 81.6965C172.791 83.6415 178.049 86.6686 183.042 91.2815C203.014 109.733 210.504 118.211 210.504 118.211C210.504 118.211 197.023 130.679 188.035 140.154C179.047 149.629 162.57 154.117 162.57 154.117C162.57 154.117 129.376 161.169 107.776 136.449C86.1758 111.728 88.9819 115.887 88.9819 115.887Z" fill="#3554D2"/>
<path d="M82.4909 115.887C82.4909 115.887 91.5584 109.788 101.34 98.767C106.852 92.5532 116.739 87.0226 123.874 83.5517C135.548 77.8665 149.094 77.0487 161.222 81.6965C166.3 83.6415 171.558 86.6686 176.551 91.2815C196.523 109.733 204.013 118.211 204.013 118.211C204.013 118.211 190.532 130.679 181.544 140.154C172.556 149.629 156.079 154.117 156.079 154.117C156.079 154.117 122.885 161.169 101.285 136.449C79.6848 111.728 82.4909 115.887 82.4909 115.887Z" fill="white"/>
<path d="M91.5483 117.608C91.5483 117.608 103.152 106.741 107.646 101.754C112.14 96.7673 132.612 79.3128 153.583 85.7959C174.554 92.279 181.02 103.679 181.02 103.679C181.02 103.679 158.226 82.7389 133.435 91.7504C133.435 91.7504 123.125 93.2814 110.143 108.242C97.1606 123.203 96.162 122.206 96.162 122.206L91.5483 117.613V117.608Z" fill="#3352CC"/>
<path d="M125.122 119.957C125.122 126.011 126.855 131.666 129.846 136.448C125.102 132.115 122.126 125.886 122.126 118.959C122.126 110.421 126.65 102.936 133.436 98.7668C128.283 104.332 125.122 111.773 125.122 119.957Z" fill="white"/>
<path d="M169.561 118.959C169.561 132.04 158.94 142.647 145.843 142.647C145.045 142.647 144.261 142.607 143.482 142.528C149.998 136.563 154.082 127.986 154.082 118.46C154.082 108.935 150.397 101.225 144.445 95.3109C144.905 95.286 145.374 95.271 145.843 95.271C158.94 95.271 169.561 105.878 169.561 118.959Z" fill="#3653D2"/>
<path d="M154.082 118.46C154.082 127.985 149.998 136.563 143.482 142.527C138.249 142.014 133.52 139.8 129.846 136.448C126.855 131.666 125.122 126.011 125.122 119.956C125.122 111.773 128.283 104.332 133.436 98.7668C136.671 96.782 140.421 95.5452 144.445 95.3108C150.397 101.225 154.082 109.414 154.082 118.46Z" fill="#ED4989"/>
<path d="M169.561 118.959C169.561 132.04 158.94 142.647 145.843 142.647C145.045 142.647 144.261 142.607 143.482 142.528C138.249 142.014 133.52 139.8 129.846 136.448C125.102 132.115 122.126 125.886 122.126 118.959C122.126 110.421 126.65 102.936 133.436 98.7669C136.671 96.7821 140.421 95.5453 144.445 95.3109C144.905 95.286 145.374 95.271 145.843 95.271C158.94 95.271 169.561 105.878 169.561 118.959Z" stroke="#3653D2" stroke-miterlimit="10"/>
<path d="M161.572 118.71C157.577 122.201 155.081 124.789 155.081 124.789C155.081 124.789 152.584 122.201 148.59 118.71C144.595 115.219 143.596 110.232 147.591 107.739C151.585 105.245 155.081 109.733 155.081 109.733C155.081 109.733 158.576 105.245 162.57 107.739C166.565 110.232 165.566 115.219 161.572 118.71Z" fill="white"/>
<path d="M146.083 105.474C143.542 107.699 141.949 109.344 141.949 109.344C141.949 109.344 140.361 107.694 137.815 105.474C135.268 103.255 134.634 100.073 137.18 98.4876C139.727 96.9017 141.949 99.7593 141.949 99.7593C141.949 99.7593 144.176 96.9017 146.717 98.4876C149.259 100.073 148.625 103.25 146.083 105.474Z" fill="white"/>
<path d="M96.1621 122.201L109.394 135.915" stroke="#3352CC" stroke-miterlimit="10"/>
<path d="M159.4 34.6644L165.816 38.1702L159.4 41.6761C157.792 42.5538 156.474 43.8753 155.595 45.4762L152.085 51.8844L148.575 45.4762C147.696 43.8704 146.373 42.5538 144.77 41.6761L138.354 38.1702L144.77 34.6644C146.378 33.7867 147.696 32.4651 148.575 30.8643L152.085 24.4561L155.595 30.8643C156.474 32.4701 157.797 33.7867 159.4 34.6644Z" stroke="#3554D1" stroke-miterlimit="10"/>
<path d="M135.503 18.6162L139.352 20.7207L135.503 22.8252C134.539 23.3538 133.745 24.1418 133.221 25.1043L131.114 28.9492L129.007 25.1043C128.478 24.1418 127.689 23.3488 126.725 22.8252L122.875 20.7207L126.725 18.6162C127.689 18.0876 128.482 17.2996 129.007 16.3371L131.114 12.4922L133.221 16.3371C133.75 17.2996 134.539 18.0926 135.503 18.6162Z" stroke="#3554D1" stroke-miterlimit="10"/>
<path d="M149.518 4.60289L152.085 6.00423L149.518 7.40557C148.874 7.75466 148.345 8.28328 147.996 8.9266L146.593 11.4899L145.189 8.9266C144.84 8.28328 144.311 7.75466 143.667 7.40557L141.1 6.00423L143.667 4.60289C144.311 4.2538 144.84 3.72518 145.189 3.08186L146.593 0.518555L147.996 3.08186C148.345 3.72518 148.874 4.2538 149.518 4.60289Z" stroke="#3554D1" stroke-miterlimit="10"/>
<path d="M140.466 56.8116C140.466 58.4373 139.842 60.0631 138.603 61.2999L124.738 75.1487L43.9542 155.833C42.7309 157.055 40.7436 157.055 39.5203 155.833L35.2063 151.524C52.8819 133.686 95.6278 90.5535 117.577 68.4312C124.363 61.5991 129.156 56.7717 130.614 55.3155C133.525 52.4081 135.762 51.4556 137.405 51.3857H137.41C137.834 51.6451 138.239 51.9592 138.603 52.3233C139.842 53.5601 140.466 55.1858 140.466 56.8116Z" fill="#3355D1" stroke="#3552D8" stroke-miterlimit="10"/>
<path d="M136.406 49.9495C134.764 50.0193 132.527 50.9718 129.616 53.8792C128.158 55.3354 123.364 60.1628 116.579 66.995L114.472 65.0151L128.617 50.887C130.729 48.7775 133.96 48.4634 136.406 49.9495Z" fill="white" stroke="#3355D1" stroke-miterlimit="10"/>
<path d="M116.579 66.995C94.6292 89.1172 51.8833 132.25 34.2077 150.088L33.968 149.849C32.7447 148.627 32.7447 146.642 33.968 145.42L114.472 65.0151L116.579 66.995Z" fill="white" stroke="#3355D1" stroke-miterlimit="10"/>
<path d="M139.467 55.3753C139.467 57.001 138.843 58.6268 137.605 59.8636L123.739 73.7124L116.579 66.9949C123.364 60.1628 128.158 55.3354 129.616 53.8792C132.527 50.9718 134.764 50.0193 136.406 49.9495H136.411C136.836 50.2088 137.24 50.523 137.605 50.887C138.843 52.1238 139.467 53.7495 139.467 55.3753Z" fill="white" stroke="#3355D1" stroke-miterlimit="10"/>
<path d="M123.739 73.7123L42.9557 154.397C41.7324 155.618 39.7451 155.618 38.5218 154.397L34.2078 150.088C51.8833 132.249 94.6293 89.1171 116.579 66.9949L123.739 73.7123Z" fill="#3056D1"/>
</g>
<defs>
<clipPath id="clip0_251_111">
<rect width="275" height="157" fill="white"/>
</clipPath>
</defs>
</svg>
