<svg width="297" height="178" viewBox="0 0 297 178" fill="none" xmlns="http://www.w3.org/2000/svg">
<path d="M273.891 67.0612H179.551C176.754 67.0612 174.916 64.1489 176.118 61.6249L203.596 3.92914C204.22 2.61965 205.53 1.78109 206.98 1.76456L259.627 1.07471C260.54 2.60313 260.792 3.85891 260.792 3.85891L274.837 58.7994C276.399 62.6205 275.482 65.2725 273.891 67.0612Z" fill="white" stroke="black" stroke-miterlimit="10"/>
<path d="M293.195 67.0612H273.891C275.482 65.2725 276.399 62.6205 274.837 58.7994L260.792 3.85893C260.792 3.85893 260.54 2.60315 259.627 1.07473L265.378 1.00037C266.865 0.979715 268.224 1.82654 268.86 3.16907L296.628 61.6291C297.826 64.153 295.987 67.0612 293.195 67.0612Z" fill="#3652D4"/>
<path d="M217.249 1.62842C215.163 2.74788 215.192 5.13139 215.192 5.13139C215.192 5.13139 202.754 54.0491 200.688 60.6585C198.743 66.8796 202.956 67.0613 203.456 67.0613H203.505" stroke="black" stroke-miterlimit="10"/>
<path d="M236.365 163.307L236.251 163.311V163.298L236.365 163.307Z" stroke="black" stroke-miterlimit="10"/>
<path d="M240.964 155.875L241.055 162.484V163.071L236.478 163.298L236.366 163.306L236.251 163.298L219.847 162.484C220.326 152.57 209.045 150.918 209.045 150.918C192.935 146.374 190.043 139.764 190.043 139.764C190.043 139.764 179.303 119.936 206.153 111.674C233.004 103.413 230.938 81.5191 230.938 81.5191L228.278 80.8168V74.29H237.424V94.4363C237.424 94.4363 236.428 104.652 248.197 113.74C259.966 122.828 251.291 149.678 240.964 155.875Z" fill="white" stroke="black" stroke-miterlimit="10"/>
<path d="M236.477 163.298V163.311L236.367 163.307L236.477 163.298Z" stroke="black" stroke-miterlimit="10"/>
<path d="M201.242 119.73C236.908 107.75 230.939 81.519 230.939 81.519H239.646" stroke="black" stroke-miterlimit="10"/>
<path d="M220.446 155.99L244.802 156.494" stroke="black" stroke-miterlimit="10"/>
<path d="M282.686 139.764C282.686 139.764 279.794 146.374 263.684 150.918C263.684 150.918 252.402 152.57 252.882 162.484L241.051 163.071V162.484L240.964 155.875C251.291 149.678 259.966 122.828 248.197 113.74C236.428 104.652 237.424 94.4363 237.424 94.4363V74.29H244.451V80.8168L241.79 81.5191C241.79 81.5191 239.725 103.413 266.575 111.674C293.426 119.936 282.686 139.764 282.686 139.764Z" fill="#3554D2"/>
<path d="M237.866 66.8545H234.974V74.2901H237.866V66.8545Z" fill="#3554D2"/>
<path d="M85.148 74.2908H210.226C213.519 74.2908 215.898 77.4426 214.994 80.6068L194.005 154.248C193.397 156.379 191.452 157.846 189.238 157.846H63.556C60.2471 157.846 57.8678 154.665 58.7972 151.488L80.3934 77.8516C81.013 75.7407 82.9504 74.2866 85.1521 74.2866L85.148 74.2908Z" fill="white" stroke="black" stroke-miterlimit="10"/>
<path d="M132 155.255L188.502 153.921V161.571L5.50495 163.31C5.50495 163.31 1.88218 161.245 1.21711 157.734C0.552045 154.222 132 155.255 132 155.255Z" fill="#3655D1"/>
<path d="M85.6313 78.6855H208.971L187.267 157.738L63.304 157.734L85.6313 78.6855Z" fill="white" stroke="black" stroke-miterlimit="10"/>
<path d="M125.506 138.732C136.001 138.732 144.508 130.225 144.508 119.73C144.508 109.235 136.001 100.728 125.506 100.728C115.012 100.728 106.504 109.235 106.504 119.73C106.504 130.225 115.012 138.732 125.506 138.732Z" fill="#3554D0"/>
<path d="M122.615 135.84C133.109 135.84 141.617 127.333 141.617 116.838C141.617 106.344 133.109 97.8364 122.615 97.8364C112.12 97.8364 103.613 106.344 103.613 116.838C103.613 127.333 112.12 135.84 122.615 135.84Z" fill="#35D1C0"/>
<path d="M92.9098 91.2266L84.1978 124.273H117.554L126.333 91.2266H92.9098Z" fill="#3256CF"/>
<path d="M91.8401 89.3682L83.1653 121.176H116.386L125.131 89.3682H91.8401Z" fill="#EA4B8A"/>
<path d="M1.00632 155.255H131.996C131.996 155.255 132.938 160.212 128.394 160.212C123.85 160.212 3.81531 160.212 3.81531 160.212C3.81531 160.212 0.845221 160.625 1.00632 155.255Z" fill="white" stroke="black" stroke-miterlimit="10"/>
<path d="M22.6934 52.5952C22.6934 52.5952 18.608 83.523 22.6934 94.3996C26.7788 105.276 34.2144 120.556 34.2144 120.556L23.375 119.523C23.375 119.523 6.2154 92.8629 22.6934 52.5952Z" fill="#33D1BF"/>
<path d="M56.4715 119.523H15.262C14.322 119.523 13.5601 120.285 13.5601 121.225V123.811C13.5601 124.751 14.322 125.513 15.262 125.513H56.4715C57.4114 125.513 58.1734 124.751 58.1734 123.811V121.225C58.1734 120.285 57.4114 119.523 56.4715 119.523Z" fill="white" stroke="black" stroke-miterlimit="10"/>
<path d="M17.7528 125.513V138.191C17.7528 138.191 17.0712 155.462 34.0078 155.462H58.1733L57.752 124.931L17.7528 125.513Z" fill="white" stroke="black" stroke-miterlimit="10"/>
<path d="M26.184 125.922V142.639C26.184 142.639 24.9241 155.461 40.0018 155.461C55.0794 155.461 54.6374 155.461 54.6374 155.461V125.513L26.184 125.922Z" fill="#E94B88"/>
<path d="M34.1482 37.8433L35.8708 105.292L42.348 119.527H32.6363C32.6363 119.527 9.2969 98.0589 34.1523 37.8433H34.1482Z" fill="white" stroke="black" stroke-miterlimit="10"/>
<path d="M46.4004 13.7734C46.4004 13.7734 21.6152 83.4364 38.5517 119.73H53.4683C53.4683 119.73 72.4248 93.8668 46.4004 13.7734Z" fill="#33D1BF"/>
<path d="M59.9951 37.8433C59.9951 37.8433 60.1025 111.885 50.523 121.799L25.9526 125.93L52.1878 129.648L51.7705 150.715C51.7705 150.715 51.3533 154.846 48.0239 155.259H58.4667C58.4667 155.259 91.3318 100.732 70.0951 51.9873C70.0951 51.9873 77.5926 94.9483 65.9312 113.124C65.9312 113.124 79.4597 87.7317 59.9951 37.8433Z" fill="#3354D3"/>
<path d="M177.745 176.95C177.745 176.95 170.735 177.698 171.152 165.545L180.05 165.582V176.95H177.749H177.745Z" fill="white" stroke="black" stroke-miterlimit="10"/>
<path d="M177.968 140.797H165.724L168.178 165.582L177.968 165.479V140.797Z" fill="white" stroke="black" stroke-miterlimit="10"/>
<path d="M177.349 140.59L177.745 176.95H199.655V140.59H177.349Z" fill="#EA4B8A"/>
<path d="M214.733 148.646C213.403 148.646 212.135 148.931 210.999 149.447V140.59H198.119L198.003 165.376L177.349 165.475V167.854L199.655 167.581V176.95C207.091 176.545 205.645 166.02 205.645 166.02H210.999C212.135 166.536 213.403 166.821 214.733 166.821C219.752 166.821 223.821 162.752 223.821 157.733C223.821 152.714 219.752 148.646 214.733 148.646ZM214.733 162.484C213.217 162.484 211.866 161.773 210.999 160.666C210.363 159.861 209.982 158.845 209.982 157.733C209.982 156.622 210.363 155.61 210.999 154.805C211.862 153.693 213.217 152.983 214.733 152.983C217.356 152.983 219.483 155.11 219.483 157.733C219.483 160.357 217.356 162.484 214.733 162.484Z" fill="#3354D3"/>
<path d="M186.18 88.9751C186.18 88.9751 186.75 93.7256 186.18 94.4402Z" fill="white"/>
<path d="M186.18 88.9751C186.18 88.9751 186.75 93.7256 186.18 94.4402" stroke="black" stroke-miterlimit="10"/>
<path d="M195.525 103C195.525 103 195.111 108.37 189.741 112.087C184.371 115.805 183.545 126.661 188.502 133.626" fill="white"/>
<path d="M195.525 103C195.525 103 195.111 108.37 189.741 112.087C184.371 115.805 183.545 126.661 188.502 133.626" stroke="black" stroke-miterlimit="10"/>
<path d="M186.023 97.2163C186.023 97.2163 188.287 104.685 175.589 115.202C175.589 115.202 165.782 122.828 176.522 130.263" fill="white"/>
<path d="M186.023 97.2163C186.023 97.2163 188.287 104.685 175.589 115.202C175.589 115.202 165.782 122.828 176.522 130.263" stroke="black" stroke-miterlimit="10"/>
</svg>
